<svg xmlns="http://www.w3.org/2000/svg" xmlns:xlink="http://www.w3.org/1999/xlink" width="162" zoomAndPan="magnify" viewBox="0 0 121.5 38.999999" height="52" preserveAspectRatio="xMidYMid meet" version="1.0"><path fill="#ec7044" d="M 56.75 13.414062 C 55.273438 13.414062 53.683594 13.457031 52.117188 13.613281 C 52.03125 15.023438 51.964844 16.433594 51.898438 17.847656 C 52.910156 17.734375 53.925781 17.667969 54.898438 17.625 C 55.800781 17.582031 55.492188 20.207031 54.433594 20.273438 C 53.574219 20.316406 52.691406 20.382812 51.808594 20.492188 C 51.699219 23.777344 51.632812 27.066406 51.632812 30.351562 C 51.632812 31.386719 49.007812 31.542969 49.007812 30.574219 C 49.007812 27.351562 49.074219 24.152344 49.164062 20.933594 C 48.480469 21.109375 47.796875 21.308594 47.15625 21.597656 C 46.207031 22.015625 46.316406 19.367188 47.222656 18.992188 C 47.882812 18.707031 48.566406 18.507812 49.273438 18.332031 C 49.339844 16.917969 49.40625 15.484375 49.492188 14.074219 C 48.675781 14.273438 47.90625 14.515625 47.175781 14.824219 C 46.230469 15.242188 46.339844 12.597656 47.242188 12.222656 C 50.289062 10.898438 54.015625 10.832031 57.257812 10.808594 C 58.160156 10.765625 57.808594 13.390625 56.75 13.414062 Z M 56.75 13.414062 " fill-opacity="1" fill-rule="nonzero"/><path fill="#ec7044" d="M 64.976562 28.191406 C 64.292969 26.667969 63.652344 25.148438 63.078125 23.601562 C 61.492188 24.023438 59.859375 24.332031 58.25 24.59375 C 57.71875 25.71875 57.167969 26.84375 56.59375 27.96875 C 56.132812 28.832031 53.550781 28.699219 54.035156 27.816406 C 54.589844 26.757812 55.117188 25.699219 55.601562 24.640625 C 55.207031 23.976562 55.535156 22.410156 56.242188 22.324219 C 56.375 22.300781 56.507812 22.28125 56.660156 22.257812 C 58.140625 18.707031 59.242188 15.066406 59.902344 11.183594 C 59.992188 10.699219 60.742188 10.480469 61.425781 10.523438 C 62.042969 10.5 62.640625 10.699219 62.703125 11.164062 C 63.078125 14.382812 63.785156 17.515625 64.757812 20.558594 C 65.152344 20.425781 65.527344 20.292969 65.925781 20.160156 C 66.917969 19.789062 66.785156 22.433594 65.859375 22.765625 C 65.75 22.808594 65.660156 22.832031 65.550781 22.875 C 66.144531 24.464844 66.785156 26.050781 67.492188 27.617188 C 67.933594 28.585938 65.351562 29.027344 64.976562 28.191406 Z M 62.242188 21.199219 C 61.800781 19.851562 61.402344 18.484375 61.074219 17.097656 C 60.609375 18.683594 60.058594 20.25 59.441406 21.773438 C 60.390625 21.617188 61.316406 21.417969 62.242188 21.199219 Z M 62.242188 21.199219 " fill-opacity="1" fill-rule="nonzero"/><path fill="#ec7044" d="M 71.242188 28.5 C 70.84375 28.632812 70.359375 28.675781 69.960938 28.585938 C 69.628906 28.542969 69.476562 28.410156 69.410156 28.257812 C 69.386719 28.234375 69.367188 28.210938 69.367188 28.191406 C 67.050781 23.183594 66.960938 17.164062 67.710938 11.824219 C 67.867188 10.789062 70.46875 10.699219 70.335938 11.605469 C 69.695312 16.167969 69.628906 21.332031 71.175781 25.832031 C 71.261719 25.675781 71.351562 25.542969 71.394531 25.433594 C 72.785156 22.058594 72.742188 18.089844 72.761719 14.515625 C 72.761719 13.480469 75.386719 13.324219 75.386719 14.296875 C 75.363281 17.339844 75.871094 27.308594 71.242188 28.5 Z M 71.242188 28.5 " fill-opacity="1" fill-rule="nonzero"/><path fill="#ec7044" d="M 86.195312 16.214844 C 86.195312 16.5 85.929688 16.832031 85.421875 16.964844 C 84.652344 17.207031 83.546875 17.050781 83.570312 16.433594 C 83.328125 15.683594 82.996094 14.914062 82.578125 14.25 C 82.355469 13.898438 81.914062 13.015625 81.476562 12.949219 C 81.035156 12.863281 79.777344 14.183594 79.554688 14.605469 C 78.585938 16.457031 80.527344 16.523438 81.9375 16.433594 C 82.753906 16.390625 84.078125 17.25 82.710938 17.714844 C 79.601562 18.792969 76.621094 23.117188 79.46875 26.183594 C 80.679688 27.484375 83.328125 27.640625 83.96875 26.027344 C 84.5625 24.550781 84.054688 22.167969 83.921875 20.648438 C 83.835938 19.65625 86.460938 19.433594 86.546875 20.425781 C 86.679688 22.101562 87.40625 25.585938 86.152344 27.132812 C 84.78125 28.808594 80.4375 29.027344 78.585938 28.125 C 76.46875 27.109375 75.5625 24.75 75.871094 22.5 C 76.160156 20.359375 77.417969 18.75 79.113281 17.648438 C 77.085938 17.183594 75.609375 15.972656 77.636719 13.589844 C 79.730469 11.117188 82.203125 10.808594 83.722656 12.308594 C 83.921875 12.464844 85.246094 13.765625 86.195312 16.214844 Z M 86.195312 16.214844 " fill-opacity="1" fill-rule="nonzero"/><path fill="#ec7044" d="M 95.898438 22.167969 C 96.296875 22.058594 95.699219 22.257812 95.480469 22.34375 C 95.015625 22.566406 94.574219 22.832031 94.15625 23.140625 C 92.480469 24.351562 91.289062 26.074219 90.453125 27.949219 C 90.230469 28.699219 88.378906 28.875 87.960938 28.257812 C 87.871094 28.167969 87.828125 28.035156 87.871094 27.902344 C 87.652344 22.390625 88.929688 16.457031 90.386719 11.164062 C 90.628906 10.257812 93.230469 10.257812 92.945312 11.316406 C 91.863281 15.265625 90.894531 19.523438 90.582031 23.734375 C 91.820312 22.390625 93.339844 21.332031 95.105469 20.824219 C 96.339844 20.472656 97.597656 21.683594 95.898438 22.167969 Z M 95.898438 22.167969 " fill-opacity="1" fill-rule="nonzero"/><path fill="#ec7044" d="M 105.648438 28.191406 C 104.964844 26.667969 104.324219 25.148438 103.75 23.601562 C 102.164062 24.023438 100.53125 24.332031 98.921875 24.59375 C 98.390625 25.71875 97.839844 26.84375 97.265625 27.96875 C 96.804688 28.832031 94.222656 28.699219 94.707031 27.816406 C 95.261719 26.757812 95.789062 25.699219 96.273438 24.640625 C 95.878906 23.976562 96.207031 22.410156 96.914062 22.324219 C 97.046875 22.300781 97.179688 22.28125 97.332031 22.257812 C 98.789062 18.683594 99.890625 15.046875 100.554688 11.164062 C 100.640625 10.679688 101.390625 10.457031 102.074219 10.5 C 102.691406 10.480469 103.289062 10.679688 103.355469 11.140625 C 103.730469 14.359375 104.433594 17.492188 105.40625 20.535156 C 105.800781 20.40625 106.175781 20.273438 106.574219 20.140625 C 107.566406 19.765625 107.414062 22.410156 106.507812 22.742188 C 106.398438 22.785156 106.308594 22.808594 106.199219 22.851562 C 106.796875 24.441406 107.433594 26.027344 108.140625 27.59375 C 108.605469 28.585938 106.023438 29.027344 105.648438 28.191406 Z M 102.914062 21.199219 C 102.472656 19.851562 102.074219 18.484375 101.746094 17.097656 C 101.28125 18.683594 100.730469 20.25 100.113281 21.773438 C 101.0625 21.617188 101.988281 21.417969 102.914062 21.199219 Z M 102.914062 21.199219 " fill-opacity="1" fill-rule="nonzero"/><path fill="#ec7044" d="M 117.625 16.832031 C 117.667969 16.984375 117.535156 17.164062 117.382812 17.292969 C 117.359375 17.316406 117.339844 17.339844 117.316406 17.339844 C 116.808594 17.714844 115.773438 17.800781 115.308594 17.472656 C 115.15625 17.382812 115.066406 17.25 115.042969 17.074219 C 114.535156 15.796875 113.125 12.863281 111.667969 12.816406 C 110.675781 12.796875 110.632812 13.941406 110.851562 14.714844 C 111.601562 17.164062 114.933594 17.605469 116.832031 18.90625 C 119.941406 21.042969 121.308594 25.875 117.359375 27.835938 C 114.207031 29.425781 109.132812 28.632812 108.316406 24.640625 C 107.480469 20.558594 111.582031 19.347656 114.691406 20.601562 C 116.058594 21.15625 113.785156 22.101562 112.949219 21.773438 C 109.859375 20.535156 110.632812 26.402344 113.476562 27.085938 C 116.941406 27.925781 117.976562 24.265625 116.589844 21.816406 C 114.78125 18.617188 109.882812 18.90625 108.425781 15.441406 C 107.675781 13.65625 108.734375 11.738281 110.589844 11.316406 C 112.507812 10.875 114.226562 11.867188 115.53125 13.28125 C 115.507812 13.300781 117.117188 15.109375 117.625 16.832031 Z M 117.625 16.832031 " fill-opacity="1" fill-rule="nonzero"/><path fill="#f5f3e8" d="M 18.285156 13.390625 C 18.285156 13.566406 18.21875 13.765625 18.0625 14.007812 C 17.84375 14.359375 17.734375 14.558594 17.734375 14.605469 C 17.292969 15.773438 16.519531 17.847656 15.460938 20.78125 C 14.867188 22.566406 14.425781 24.242188 14.179688 25.808594 C 14.117188 26.601562 13.960938 27.707031 13.742188 29.140625 C 13.695312 29.316406 13.453125 29.382812 13.035156 29.382812 C 12.792969 29.382812 12.570312 29.316406 12.351562 29.160156 L 12.019531 28.960938 L 10.453125 28.960938 C 10.277344 28.960938 10.144531 28.894531 10.035156 28.785156 C 9.859375 28.609375 9.617188 28.101562 9.328125 27.265625 L 8.425781 24.707031 C 7.519531 25.960938 6.835938 27.109375 6.328125 28.167969 C 6.21875 28.5 6.019531 28.894531 5.757812 29.402344 C 5.691406 29.46875 5.578125 29.515625 5.425781 29.515625 L 4.941406 29.382812 L 4.101562 29.140625 C 3.703125 29.09375 3.152344 28.984375 2.425781 28.832031 C 2.292969 28.765625 2.203125 28.609375 2.140625 28.324219 C 2.074219 28.101562 2.050781 27.726562 2.027344 27.242188 C 1.984375 26.648438 1.917969 25.34375 1.808594 23.273438 L 1.765625 14.800781 C 1.765625 14.582031 1.785156 14.183594 1.832031 13.613281 C 1.875 13.039062 1.917969 12.617188 1.984375 12.375 C 2.007812 12.289062 2.09375 12.222656 2.269531 12.179688 C 2.449219 12.132812 2.578125 12.113281 2.667969 12.113281 C 2.890625 12.113281 3.152344 12.15625 3.527344 12.265625 C 3.882812 12.375 4.191406 12.507812 4.453125 12.664062 C 4.699219 12.816406 4.808594 12.972656 4.761719 13.125 L 5.050781 23.933594 C 5.449219 23.40625 6.085938 22.609375 6.925781 21.550781 C 8.003906 20.273438 8.710938 19.632812 9.066406 19.632812 L 9.417969 19.808594 C 9.636719 19.941406 9.792969 20.03125 9.859375 20.03125 C 10.367188 20.207031 10.695312 20.425781 10.875 20.734375 C 11.050781 21.042969 11.136719 21.507812 11.183594 22.167969 C 11.226562 22.742188 11.3125 23.160156 11.425781 23.40625 C 12.128906 21.441406 12.746094 19.65625 13.300781 18.042969 C 14.050781 15.925781 14.777344 14.140625 15.484375 12.640625 C 15.570312 12.464844 15.726562 12.375 15.96875 12.375 C 16.054688 12.375 16.71875 12.53125 17.910156 12.863281 C 18.152344 12.90625 18.285156 13.082031 18.285156 13.390625 Z M 18.285156 13.390625 " fill-opacity="1" fill-rule="nonzero"/><path fill="#f5f3e8" d="M 23.511719 13.390625 C 23.511719 13.632812 23.511719 13.765625 23.488281 13.789062 C 23.113281 14.757812 22.585938 16.257812 21.921875 18.242188 C 20.710938 22.234375 20.027344 25.832031 19.851562 29.027344 C 19.605469 29.160156 19.410156 29.25 19.210938 29.25 L 18.417969 29.074219 C 17.667969 28.894531 17.160156 28.71875 16.894531 28.542969 C 16.628906 28.34375 16.496094 28.015625 16.496094 27.550781 C 16.496094 26.558594 16.71875 25.167969 17.136719 23.359375 C 17.554688 21.574219 18.0625 19.765625 18.660156 17.976562 C 19.253906 16.191406 19.761719 14.847656 20.179688 13.964844 C 20.269531 13.789062 20.421875 13.390625 20.644531 12.816406 C 20.753906 12.488281 20.863281 12.308594 20.953125 12.242188 C 21.039062 12.179688 21.21875 12.15625 21.460938 12.15625 C 21.726562 12.15625 22.101562 12.222656 22.585938 12.355469 C 23.070312 12.488281 23.335938 12.597656 23.378906 12.707031 C 23.46875 12.882812 23.511719 13.125 23.511719 13.390625 Z M 23.511719 13.390625 " fill-opacity="1" fill-rule="nonzero"/><path fill="#f5f3e8" d="M 37.1875 14.316406 C 37.1875 14.425781 37.121094 14.582031 36.988281 14.757812 C 36.855469 14.957031 36.679688 15.175781 36.4375 15.421875 C 36.195312 15.664062 36.039062 15.839844 35.949219 15.925781 C 35.246094 16.699219 34.582031 17.382812 34.011719 17.933594 C 33.414062 18.484375 32.707031 19.101562 31.871094 19.808594 C 31.207031 20.359375 30.878906 20.648438 30.878906 20.691406 C 30.878906 20.800781 30.988281 21.109375 31.207031 21.640625 C 31.429688 22.148438 31.605469 22.523438 31.738281 22.71875 C 32.070312 23.316406 32.445312 23.867188 32.820312 24.375 C 33.988281 25.917969 35.179688 27.023438 36.414062 27.707031 C 36.546875 27.769531 36.632812 27.859375 36.632812 27.992188 C 36.632812 28.210938 36.4375 28.410156 36.0625 28.632812 C 35.6875 28.851562 35.265625 29.027344 34.78125 29.160156 C 34.320312 29.316406 33.988281 29.382812 33.832031 29.382812 C 33.703125 29.382812 33.414062 29.226562 32.972656 28.941406 C 32.398438 28.566406 31.761719 27.992188 31.078125 27.242188 C 30.371094 26.46875 29.820312 25.742188 29.378906 25.015625 C 28.894531 24.242188 28.453125 23.535156 28.078125 22.917969 C 28.054688 22.941406 27.835938 23.09375 27.394531 23.40625 C 27.105469 23.625 26.90625 23.800781 26.796875 23.976562 C 26.578125 24.332031 26.488281 25.015625 26.488281 26.050781 L 26.488281 28.875 C 26.488281 28.984375 26.421875 29.09375 26.3125 29.183594 C 26.203125 29.269531 26.070312 29.335938 25.960938 29.335938 C 25.78125 29.335938 25.605469 29.292969 25.429688 29.207031 C 25.078125 29.027344 24.878906 28.917969 24.835938 28.917969 C 24.304688 28.71875 23.910156 28.566406 23.644531 28.433594 C 23.421875 28.324219 23.289062 28.144531 23.222656 27.902344 C 23.160156 27.660156 23.113281 27.308594 23.113281 26.84375 C 23.113281 26.140625 23.378906 24.484375 23.929688 21.839844 C 24.480469 19.214844 24.878906 17.425781 25.121094 16.523438 C 25.453125 15.375 25.738281 14.472656 25.960938 13.832031 C 26.179688 13.191406 26.445312 12.640625 26.753906 12.179688 C 26.90625 12.15625 27.195312 12.199219 27.613281 12.308594 C 28.03125 12.421875 28.40625 12.574219 28.738281 12.773438 C 29.070312 12.972656 29.246094 13.191406 29.246094 13.433594 L 28.871094 14.539062 C 28.539062 15.398438 28.339844 15.972656 28.230469 16.28125 C 28.144531 16.589844 28.011719 17.074219 27.902344 17.734375 C 27.769531 18.308594 27.679688 18.664062 27.679688 18.792969 L 27.679688 19.058594 C 28.628906 18.707031 29.644531 18.042969 30.746094 17.074219 C 31.828125 16.125 33.214844 14.734375 34.871094 12.925781 C 35.398438 13.015625 35.753906 13.082031 35.929688 13.148438 C 36.105469 13.214844 36.347656 13.367188 36.65625 13.632812 C 37.007812 13.921875 37.1875 14.164062 37.1875 14.316406 Z M 37.1875 14.316406 " fill-opacity="1" fill-rule="nonzero"/><path fill="#f5f3e8" d="M 44.617188 13.390625 C 44.617188 13.632812 44.617188 13.765625 44.597656 13.789062 C 44.222656 14.757812 43.691406 16.257812 43.03125 18.242188 C 41.816406 22.234375 41.132812 25.832031 40.957031 29.027344 C 40.714844 29.160156 40.515625 29.25 40.316406 29.25 L 39.523438 29.074219 C 38.773438 28.894531 38.265625 28.71875 38.003906 28.542969 C 37.738281 28.34375 37.605469 28.015625 37.605469 27.550781 C 37.605469 26.558594 37.824219 25.167969 38.246094 23.359375 C 38.664062 21.574219 39.171875 19.765625 39.765625 17.976562 C 40.363281 16.191406 40.871094 14.847656 41.289062 13.964844 C 41.375 13.789062 41.53125 13.390625 41.75 12.816406 C 41.863281 12.488281 41.972656 12.308594 42.058594 12.242188 C 42.148438 12.179688 42.324219 12.15625 42.566406 12.15625 C 42.832031 12.15625 43.207031 12.222656 43.691406 12.355469 C 44.179688 12.488281 44.441406 12.597656 44.488281 12.707031 C 44.574219 12.882812 44.617188 13.125 44.617188 13.390625 Z M 44.617188 13.390625 " fill-opacity="1" fill-rule="nonzero"/></svg>